# xmcd CD database file
#
# Track frame offsets:
#	150
#	20176
#	40350
#	59610
#	79737
#	99638
#	118179
#	138068
#	157789
#	178328
#	194807
#
# Disc length: 2855 seconds
#
# Revision: 0
# Processed by: cddbd v1.5.1PL0 Copyright (c) Steve Scherf et al.
# Submitted via: CDex 1.51
#
DISCID=9e0b250b
DTITLE=Tonny Tun Tun - Afrodiasiaco
DYEAR=2004
DGENRE=Merengue
TTITLE0=La Paga
TTITLE1=Solo Una Noche
TTITLE2=Por Que Sin Tí
TTITLE3=Dile A El
TTITLE4=Sabado En La Noche
TTITLE5=Solo Doy Cariño
TTITLE6=Eres Una Bendición
TTITLE7=Si Pudiera Cambiar Tu Vida
TTITLE8=No Te Pongas Brava
TTITLE9=Solo Una Noche (Bounce)
TTITLE10=Me Haces Tanta Falta
EXTD=YEAR: 2004
EXTT0=
EXTT1=
EXTT2=
EXTT3=
EXTT4=
EXTT5=
EXTT6=
EXTT7=
EXTT8=
EXTT9=
EXTT10=
PLAYORDER=
